<?xml version="1.0" standalone="no"?>
<!DOCTYPE svg PUBLIC "-//W3C//DTD SVG 20010904//EN"
 "http://www.w3.org/TR/2001/REC-SVG-20010904/DTD/svg10.dtd">
<svg version="1.0" xmlns="http://www.w3.org/2000/svg"
 width="360.000000pt" height="397.000000pt" viewBox="0 0 360.000000 397.000000"
 preserveAspectRatio="xMidYMid meet">

<g transform="translate(0.000000,397.000000) scale(0.100000,-0.100000)"
fill="#000000" stroke="none">
<path d="M1523 3558 c-5 -7 -156 -743 -334 -1635 -178 -892 -325 -1620 -327
-1619 -1 2 -72 421 -157 932 -85 511 -159 945 -165 965 -6 21 -16 39 -23 41
-6 2 -94 2 -195 0 -181 -4 -183 -4 -180 -25 3 -21 8 -22 150 -25 82 -1 148 -6
148 -10 0 -4 78 -472 174 -1040 113 -673 178 -1038 187 -1047 25 -25 61 -23
75 5 6 14 164 789 349 1723 l338 1697 949 0 949 0 -3 23 -3 22 -961 3 c-762 2
-963 -1 -971 -10z"/>
<path d="M413 3158 c-76 -15 -103 -24 -103 -35 0 -12 8 -13 39 -8 39 6 71 -11
71 -38 0 -9 -129 -465 -156 -550 -5 -16 0 -18 52 -15 l57 3 27 86 c74 237 306
524 400 494 32 -10 25 -51 -50 -283 -38 -118 -70 -232 -70 -252 0 -39 24 -70
54 -70 45 0 151 84 185 148 14 26 -7 44 -21 18 -19 -33 -70 -86 -84 -86 -24 0
-16 34 56 255 79 241 86 290 45 330 -27 28 -93 34 -142 13 -63 -27 -171 -137
-280 -284 -18 -25 -15 -6 23 126 24 85 44 158 44 162 0 11 -31 8 -147 -14z"/>
<path d="M2085 2319 c-115 -21 -211 -38 -212 -39 -2 0 -3 -13 -3 -30 l0 -30
78 0 c144 0 224 -41 275 -142 15 -30 54 -158 87 -284 l60 -229 -31 -60 c-97
-187 -310 -492 -377 -538 -50 -35 -70 -34 -118 6 -55 47 -77 57 -126 57 -79
-1 -128 -50 -128 -130 0 -90 69 -150 173 -150 124 0 232 84 388 300 59 81 137
200 174 265 45 77 70 113 75 104 4 -8 15 -50 25 -94 44 -208 108 -442 131
-481 38 -65 82 -94 144 -94 60 0 92 15 182 85 94 74 258 278 258 322 0 5 -12
15 -26 22 -22 10 -28 9 -40 -6 -7 -10 -14 -21 -14 -24 0 -12 -87 -117 -120
-146 -94 -82 -148 -69 -183 42 -9 28 -50 194 -92 371 l-76 321 37 64 c58 98
167 242 210 276 79 61 105 65 216 32 116 -36 189 -12 218 69 23 67 -10 140
-77 168 -40 17 -118 18 -164 2 -108 -37 -259 -181 -378 -361 -46 -70 -87 -124
-91 -122 -4 3 -11 21 -14 40 -12 61 -72 248 -93 290 -12 22 -42 68 -67 103
-34 46 -52 62 -68 61 -13 -1 -117 -19 -233 -40z"/>
</g>
</svg>
