<?xml version="1.0" standalone="no"?>
<!DOCTYPE svg PUBLIC "-//W3C//DTD SVG 20010904//EN"
 "http://www.w3.org/TR/2001/REC-SVG-20010904/DTD/svg10.dtd">
<svg version="1.0" xmlns="http://www.w3.org/2000/svg"
 width="249.000000pt" height="257.000000pt" viewBox="0 0 249.000000 257.000000"
 preserveAspectRatio="xMidYMid meet">

<g transform="translate(0.000000,257.000000) scale(0.100000,-0.100000)"
fill="#000000" stroke="none">
<path d="M1670 2114 c-52 -14 -98 -30 -102 -37 -4 -7 -8 -36 -8 -64 l0 -53 40
0 c35 0 42 4 65 40 32 51 70 70 139 70 72 0 114 -33 123 -97 12 -89 -9 -130
-136 -275 -65 -74 -137 -159 -160 -188 -47 -60 -94 -146 -87 -159 9 -14 155
-20 344 -14 l183 6 -3 85 c-4 101 -14 110 -64 55 l-35 -38 -117 -3 c-64 -2
-127 0 -140 5 -24 9 -29 4 232 292 100 110 116 142 116 230 0 46 -4 56 -41 95
-73 80 -178 95 -349 50z"/>
<path d="M723 1540 c-35 -8 -50 -17 -101 -64 -56 -51 -76 -84 -62 -101 20 -24
40 -18 86 25 46 42 69 48 97 27 22 -16 93 -293 84 -328 -8 -32 -191 -247 -222
-261 -18 -8 -31 -7 -55 5 -17 9 -37 14 -45 11 -27 -11 -58 -120 -43 -149 8
-14 19 -16 57 -11 79 11 114 33 181 114 139 168 153 183 160 175 4 -4 17 -48
29 -97 28 -115 44 -151 74 -171 33 -21 116 -21 161 0 49 23 128 112 124 139
-5 35 -34 29 -87 -18 -29 -26 -58 -46 -65 -46 -31 0 -52 45 -94 200 -36 133
-36 149 -4 200 36 57 162 191 195 209 23 12 28 11 53 -8 25 -20 28 -20 45 -5
22 19 39 74 39 122 0 32 0 32 -50 32 -93 0 -125 -23 -247 -178 -42 -54 -79
-101 -83 -105 -4 -5 -15 27 -25 70 -39 178 -96 239 -202 213z"/>
</g>
</svg>
