<?xml version="1.0" standalone="no"?>
<!DOCTYPE svg PUBLIC "-//W3C//DTD SVG 20010904//EN"
 "http://www.w3.org/TR/2001/REC-SVG-20010904/DTD/svg10.dtd">
<svg version="1.0" xmlns="http://www.w3.org/2000/svg"
 width="263.000000pt" height="309.000000pt" viewBox="0 0 263.000000 309.000000"
 preserveAspectRatio="xMidYMid meet">

<g transform="translate(0.000000,309.000000) scale(0.100000,-0.100000)"
fill="#000000" stroke="none">
<path d="M1636 2308 c-47 -13 -139 -98 -134 -124 5 -28 22 -27 63 6 44 35 80
39 95 9 21 -38 42 -122 80 -314 l37 -190 -25 -33 c-14 -18 -50 -51 -80 -73
-65 -46 -111 -52 -135 -16 -22 32 -49 12 -66 -51 -17 -62 -6 -82 45 -82 92 0
215 83 333 224 148 178 338 505 344 592 l2 39 -80 3 c-98 3 -123 -9 -82 -39
21 -16 27 -29 27 -59 0 -72 -69 -227 -151 -340 -31 -43 -32 -43 -41 -21 -4 13
-19 93 -33 179 -29 177 -61 264 -106 288 -32 16 -39 16 -93 2z"/>
<path d="M623 1873 c-39 -22 -80 -58 -116 -102 -26 -32 -27 -35 -11 -52 23
-26 28 -25 69 20 48 51 81 60 110 29 23 -24 55 -126 76 -238 10 -58 10 -70 -6
-100 -47 -91 -197 -250 -236 -250 -11 0 -28 6 -39 12 -31 20 -53 -1 -69 -64
-19 -74 -13 -88 43 -88 89 0 128 30 258 198 44 56 83 102 88 102 5 0 12 -17
15 -37 39 -233 99 -294 238 -247 66 22 153 117 140 151 -9 22 -33 14 -82 -27
-66 -56 -93 -54 -119 8 -22 51 -42 124 -67 241 l-15 74 37 46 c57 69 174 191
196 202 14 8 22 6 36 -10 23 -26 57 -27 71 -2 5 11 15 42 21 71 13 61 2 80
-46 80 -83 0 -136 -41 -262 -203 l-77 -97 -17 83 c-18 92 -48 157 -86 193 -32
30 -103 33 -150 7z"/>
</g>
</svg>
