<?xml version="1.0" standalone="no"?>
<!DOCTYPE svg PUBLIC "-//W3C//DTD SVG 20010904//EN"
 "http://www.w3.org/TR/2001/REC-SVG-20010904/DTD/svg10.dtd">
<svg version="1.0" xmlns="http://www.w3.org/2000/svg"
 width="315.000000pt" height="281.000000pt" viewBox="0 0 315.000000 281.000000"
 preserveAspectRatio="xMidYMid meet">

<g transform="translate(0.000000,281.000000) scale(0.100000,-0.100000)"
fill="#000000" stroke="none">
<path d="M885 2294 c-11 -3 -37 -10 -57 -15 -45 -12 -62 -39 -53 -85 8 -46 30
-44 101 11 48 38 65 45 102 45 61 0 102 -40 102 -102 0 -56 -16 -80 -141 -216
-105 -115 -179 -213 -179 -237 0 -21 20 -23 238 -31 l202 -7 0 72 c0 84 -13
97 -61 57 -29 -25 -37 -26 -140 -26 -60 0 -109 3 -109 6 0 3 62 70 138 150 75
79 145 158 155 176 22 43 22 95 -3 135 -34 56 -62 67 -174 70 -56 1 -110 -1
-121 -3z"/>
<path d="M1861 2241 l-63 -6 -28 -95 c-308 -1052 -393 -1336 -399 -1342 -5 -6
-133 260 -267 559 l-36 82 -47 -19 c-108 -43 -221 -103 -227 -122 -12 -38 11
-43 87 -19 39 12 73 21 75 18 2 -2 66 -136 143 -298 222 -472 217 -463 268
-457 28 3 29 7 111 278 46 151 151 505 233 785 83 281 155 514 160 520 6 6
205 12 532 15 l522 5 3 53 3 52 -503 -2 c-277 -1 -532 -4 -567 -7z"/>
<path d="M2180 1594 c-40 -17 -105 -77 -125 -115 -13 -24 -12 -28 6 -45 19
-17 21 -17 62 24 53 52 95 57 122 15 14 -21 85 -276 85 -305 0 -11 -154 -191
-198 -230 -41 -37 -75 -48 -87 -28 -3 6 -17 10 -30 10 -35 0 -59 -42 -60 -104
l0 -51 56 0 c79 0 118 30 235 175 53 66 98 119 99 118 2 -2 15 -46 30 -98 35
-122 58 -166 96 -186 66 -34 172 6 242 90 43 52 45 61 16 76 -22 12 -27 10
-89 -48 -65 -61 -92 -32 -140 149 -41 155 -40 179 10 245 21 29 68 82 102 118
67 70 95 81 129 50 10 -9 25 -14 34 -10 21 8 44 64 47 117 l3 44 -40 3 c-70 6
-106 -12 -181 -91 -38 -40 -88 -97 -112 -125 -49 -59 -72 -66 -72 -24 0 39
-27 129 -53 175 -36 65 -109 85 -187 51z"/>
</g>
</svg>
