<?xml version="1.0" standalone="no"?>
<!DOCTYPE svg PUBLIC "-//W3C//DTD SVG 20010904//EN"
 "http://www.w3.org/TR/2001/REC-SVG-20010904/DTD/svg10.dtd">
<svg version="1.0" xmlns="http://www.w3.org/2000/svg"
 width="320.000000pt" height="283.000000pt" viewBox="0 0 320.000000 283.000000"
 preserveAspectRatio="xMidYMid meet">

<g transform="translate(0.000000,283.000000) scale(0.100000,-0.100000)"
fill="#000000" stroke="none">
<path d="M585 2296 c-35 -15 -105 -89 -105 -111 0 -23 29 -18 62 10 46 39 73
33 92 -17 28 -73 67 -259 73 -343 l5 -80 -35 -41 c-20 -22 -56 -51 -81 -64
l-45 -24 -24 22 c-31 29 -44 28 -60 -5 -24 -47 -30 -85 -15 -94 29 -19 103 -9
153 20 123 70 354 370 462 598 40 84 40 113 -1 124 -36 10 -126 0 -126 -14 0
-6 12 -23 26 -38 24 -26 25 -30 14 -66 -19 -59 -101 -211 -136 -251 l-32 -37
-10 55 c-6 30 -20 104 -32 165 -24 126 -50 180 -93 195 -38 13 -55 12 -92 -4z"/>
<path d="M2178 2130 c-295 -3 -539 -7 -541 -10 -3 -3 -96 -320 -207 -705 -110
-385 -203 -708 -206 -717 -3 -10 -9 -18 -15 -18 -12 0 -64 106 -194 395 -60
132 -109 241 -109 241 -2 3 -240 -104 -258 -115 -20 -12 -24 -56 -8 -66 6 -4
42 6 81 20 39 15 71 26 73 24 2 -2 40 -85 86 -184 143 -311 266 -559 283 -573
8 -7 28 -12 43 -10 32 3 -12 -133 342 1076 83 283 153 516 156 519 8 8 508 22
799 22 l257 1 0 54 c0 51 -2 55 -22 53 -13 -1 -265 -4 -560 -7z"/>
<path d="M2553 1489 c-43 -12 -131 -95 -210 -196 -35 -46 -68 -83 -73 -83 -5
0 -16 33 -25 73 -37 165 -81 214 -182 204 -60 -6 -120 -48 -169 -118 -27 -40
-28 -42 -9 -55 29 -21 39 -18 74 26 81 101 126 53 177 -192 17 -83 17 -89 1
-124 -20 -41 -175 -222 -208 -242 -19 -12 -27 -11 -61 4 -34 15 -41 15 -53 3
-15 -15 -46 -134 -37 -143 11 -11 103 -6 135 8 40 16 124 104 204 213 l61 82
12 -52 c27 -115 60 -204 85 -227 36 -33 118 -39 171 -12 39 20 86 65 117 111
12 18 14 28 5 38 -17 21 -36 15 -82 -27 -74 -68 -100 -53 -140 82 -46 150 -57
217 -41 248 35 67 206 250 235 250 4 0 15 -9 25 -20 25 -28 51 -25 63 8 19 50
33 125 25 132 -15 14 -67 19 -100 9z"/>
</g>
</svg>
